<?xml version="1.0" standalone="no"?>
<!DOCTYPE svg PUBLIC "-//W3C//DTD SVG 20010904//EN"
 "http://www.w3.org/TR/2001/REC-SVG-20010904/DTD/svg10.dtd">
<svg version="1.0" xmlns="http://www.w3.org/2000/svg"
 width="512.000000pt" height="512.000000pt" viewBox="0 0 512.000000 512.000000"
 preserveAspectRatio="xMidYMid meet">
<metadata>
Created by potrace 1.14, written by Peter Selinger 2001-2017
</metadata>
<g transform="translate(0.000000,512.000000) scale(0.100000,-0.100000)"
fill="#000000" stroke="none">
<path d="M2075 4380 c-50 -19 -50 -17 -51 -432 l-1 -390 24 -29 25 -29 546 0
c524 0 548 1 572 20 l25 19 2 397 1 397 -27 28 -28 28 -534 -1 c-294 0 -543
-4 -554 -8z m750 -111 c12 -37 -29 -62 -64 -40 -18 12 -6 58 17 63 25 6 40 -1
47 -23z m138 -1 c14 -41 -52 -67 -73 -28 -15 28 22 65 49 50 11 -5 21 -15 24
-22z m129 8 c16 -22 8 -46 -17 -52 -45 -11 -71 28 -40 60 16 15 44 11 57 -8z
m76 -418 l-3 -303 -534 -3 c-366 -1 -538 1 -545 8 -7 7 -11 112 -11 306 l0
294 548 0 547 0 -2 -302z"/>
<path d="M2642 4075 c-11 -17 -110 -405 -103 -406 3 -1 23 -2 43 -3 l37 -2 29
116 c17 63 41 157 54 208 13 50 22 92 19 93 -31 6 -74 3 -79 -6z"/>
<path d="M2770 3971 c0 -57 1 -59 33 -71 17 -7 45 -18 61 -25 l30 -13 -39 -16
c-21 -9 -49 -19 -62 -22 -21 -6 -23 -12 -23 -65 0 -59 0 -60 23 -48 67 35 177
102 178 107 8 47 2 88 -15 104 -11 10 -23 18 -27 18 -4 0 -41 20 -83 45 l-76
45 0 -59z"/>
<path d="M2363 3967 l-93 -52 0 -51 0 -52 99 -56 c54 -31 101 -56 103 -56 3 0
2 88 -1 113 -1 4 -7 7 -13 8 -7 0 -35 10 -62 23 l-50 22 62 22 c34 13 62 26
63 30 6 46 3 102 -6 102 -5 0 -52 -24 -102 -53z"/>
<path d="M3592 3708 c-42 -11 -72 -58 -65 -101 6 -41 21 -57 96 -103 116 -71
262 -189 378 -306 109 -111 119 -118 155 -118 42 1 64 13 82 47 24 44 15 79
-35 134 -128 142 -275 269 -435 375 -115 76 -133 84 -176 72z"/>
<path d="M1550 3646 c-89 -37 -184 -91 -293 -165 -124 -85 -266 -201 -283
-233 -28 -50 10 -120 71 -132 35 -7 27 -12 214 131 128 98 257 179 343 214 29
12 65 35 81 50 47 50 29 126 -35 148 -39 14 -33 14 -98 -13z"/>
<path d="M2456 3082 c-28 -3 -28 -5 -22 -50 14 -99 17 -92 -50 -116 -107 -39
-236 -124 -296 -195 -18 -22 -43 -68 -55 -103 -19 -57 -21 -81 -19 -255 2
-191 1 -192 -21 -202 -43 -20 -65 -69 -59 -133 6 -66 28 -112 121 -258 37 -58
75 -118 84 -134 34 -60 142 -198 188 -241 126 -117 313 -148 478 -78 124 53
199 141 393 463 130 215 150 303 80 365 -24 21 -34 37 -32 55 1 14 3 95 4 180
2 135 0 163 -18 214 -57 158 -270 334 -533 438 -73 30 -199 55 -243 50z m94
-697 c47 -9 127 -28 179 -41 166 -43 200 -48 327 -48 l100 -1 -25 -93 c-28
-106 -26 -111 41 -107 55 3 79 -20 68 -67 -13 -56 -24 -77 -125 -243 -125
-206 -172 -272 -234 -328 -83 -74 -143 -99 -251 -102 -157 -6 -275 80 -417
303 -115 181 -180 287 -188 307 -40 104 -20 144 76 148 30 2 34 5 33 27 -3 43
-14 154 -19 183 -5 24 -1 30 31 43 101 42 254 50 404 19z"/>
<path d="M8 2885 c4 -6 36 -53 72 -104 l64 -92 18 23 c19 25 91 158 86 159
-19 5 -55 9 -113 14 -136 13 -135 13 -127 0z"/>
<path d="M4433 2886 c-256 -50 -451 -290 -451 -556 0 -241 145 -448 376 -537
82 -32 245 -40 329 -18 251 68 419 274 429 528 6 136 -22 236 -97 348 -71 106
-203 199 -324 229 -71 17 -190 20 -262 6z m-12 -104 c-31 -32 -72 -77 -91
-101 l-35 -42 -80 3 -80 3 51 51 c58 58 118 96 196 124 95 34 102 27 39 -38z
m292 38 c73 -23 163 -79 222 -139 l39 -41 -86 0 -86 0 -38 48 c-21 26 -59 69
-86 96 -26 26 -48 50 -48 52 0 7 18 4 83 -16z m-45 -98 c34 -36 62 -68 62 -73
0 -5 -35 -9 -77 -9 l-78 0 -1 85 c0 97 -5 98 94 -3z m-143 1 l0 -78 -84 -3
-84 -3 38 43 c45 52 115 118 124 118 3 0 6 -35 6 -77z m-265 -137 c0 -2 -10
-25 -22 -52 -12 -27 -29 -78 -38 -114 l-16 -65 -75 0 c-72 0 -74 1 -75 25 0
34 19 106 44 163 l21 47 80 0 c45 0 81 -2 81 -4z m265 -116 l0 -115 -139 -1
c-100 0 -139 3 -143 12 -7 19 15 92 49 162 l31 63 101 -3 101 -3 0 -115z m278
73 c28 -54 61 -157 54 -176 -5 -16 -276 -19 -278 -3 -4 30 -5 212 -2 219 3 4
48 7 102 7 l98 0 26 -47z m216 9 c21 -42 41 -110 47 -162 l4 -36 -80 0 c-76
-1 -80 0 -80 21 0 27 -33 132 -54 174 -9 16 -16 32 -16 36 0 3 36 5 80 5 l80
0 19 -38z m-851 -251 c14 -1 20 -15 29 -64 6 -35 22 -87 35 -115 l25 -52 -78
0 -79 0 -19 38 c-33 65 -59 181 -42 192 8 4 73 5 129 1z m347 0 c6 -1 10 -47
10 -116 l1 -115 -107 0 -107 0 -27 57 c-32 69 -53 162 -38 171 9 6 225 8 268
3z m343 -15 c6 -27 -16 -103 -45 -163 l-26 -53 -104 0 c-75 0 -103 3 -104 13
-3 24 -5 212 -3 217 1 3 64 5 141 4 124 0 138 -2 141 -18z m205 15 c18 -2 -11
-126 -45 -193 l-18 -38 -76 0 c-69 0 -75 2 -69 18 29 69 55 152 55 178 0 17 2
33 4 35 4 3 121 3 149 0z m-749 -316 c14 -19 58 -65 96 -103 67 -67 68 -69 36
-62 -53 12 -128 42 -171 69 -44 27 -135 110 -135 123 0 4 33 8 74 8 72 0 74
-1 100 -35z m211 -48 c0 -43 -2 -80 -6 -82 -6 -4 -97 81 -142 133 l-28 33 88
-3 88 -3 0 -78z m215 75 c0 -5 -34 -44 -77 -86 -53 -54 -78 -74 -83 -64 -5 10
-6 146 -1 156 3 7 161 1 161 -6z m220 -1 c0 -17 -118 -116 -166 -140 -45 -23
-164 -63 -164 -55 0 2 34 38 76 80 41 42 82 87 90 99 13 20 24 23 89 24 41 1
75 -3 75 -8z"/>
<path d="M350 2850 c0 -20 -58 -134 -99 -194 -22 -33 -37 -64 -34 -70 19 -33
176 -257 178 -254 2 3 101 174 140 243 13 22 50 87 84 145 34 58 61 107 61
110 0 3 -22 6 -49 8 -28 2 -59 5 -71 7 -63 12 -210 16 -210 5z"/>
<path d="M737 2778 c-29 -46 -97 -160 -97 -163 0 -2 -42 -75 -94 -163 l-93
-160 231 -133 c127 -73 241 -139 253 -147 21 -13 23 -12 39 22 10 20 16 38 13
40 -2 2 -95 56 -206 120 -110 64 -204 123 -207 132 -8 20 8 50 30 58 12 5 85
-32 222 -111 113 -65 208 -119 211 -120 3 -2 14 11 24 29 14 25 15 33 5 39 -7
4 -101 59 -208 121 -201 117 -221 135 -190 174 21 24 43 17 161 -52 192 -112
286 -164 296 -164 6 0 15 12 22 27 15 34 28 24 -205 159 -100 57 -187 111
-194 119 -16 19 -9 45 15 61 22 14 30 12 122 -42 161 -94 324 -186 326 -183 1
2 10 18 19 35 l18 32 -83 47 c-45 26 -101 58 -124 71 -108 62 -269 157 -280
166 -8 6 -16 2 -26 -14z"/>
<path d="M414 1649 c-37 -19 -55 -62 -49 -121 12 -128 18 -167 32 -233 8 -38
17 -81 19 -95 16 -82 90 -301 130 -382 27 -53 48 -68 96 -68 38 0 48 6 71 40
23 33 21 68 -4 127 -41 94 -105 295 -125 396 -7 36 -25 173 -30 227 -6 63 -24
97 -60 110 -31 12 -53 12 -80 -1z"/>
<path d="M4673 1520 c-33 -13 -49 -47 -63 -130 -24 -149 -94 -389 -139 -478
-26 -53 -16 -110 25 -137 58 -38 113 -15 150 62 58 123 142 423 159 566 10 91
-54 148 -132 117z"/>
<path d="M2165 1250 c-49 -33 -171 -76 -310 -109 -71 -17 -139 -34 -150 -37
-11 -3 -33 -7 -50 -10 -73 -14 -214 -66 -261 -98 -81 -54 -153 -153 -179 -243
l-6 -22 1408 0 c774 0 1411 2 1415 5 4 3 -12 41 -34 85 -50 96 -125 170 -213
209 -33 15 -172 55 -309 89 -244 61 -344 94 -398 132 -14 11 -28 19 -31 19 -2
0 -18 -28 -35 -63 -108 -218 -363 -300 -590 -189 -74 36 -163 126 -193 196
-13 31 -26 56 -29 56 -3 0 -18 -9 -35 -20z"/>
</g>
</svg>
